<?xml version="1.0" standalone="no"?><!DOCTYPE svg PUBLIC "-//W3C//DTD SVG 1.1//EN" "http://www.w3.org/Graphics/SVG/1.1/DTD/svg11.dtd"><svg t="1684467583322" class="icon" viewBox="0 0 1024 1024" version="1.1" xmlns="http://www.w3.org/2000/svg" p-id="20201" xmlns:xlink="http://www.w3.org/1999/xlink" width="200" height="200"><path d="M34.133333 204.8a136.533333 136.533333 0 0 1 136.533334-136.533333h682.666666a136.533333 136.533333 0 0 1 136.533334 136.533333v614.4a136.533333 136.533333 0 0 1-136.533334 136.533333H170.666667a136.533333 136.533333 0 0 1-136.533334-136.533333V204.8z" fill="#FF7744" p-id="20202"></path><path d="M34.133333 614.4h955.733334v204.8a136.533333 136.533333 0 0 1-136.533334 136.533333H170.666667a136.533333 136.533333 0 0 1-136.533334-136.533333v-204.8z" fill="#FFAA44" p-id="20203"></path><path d="M204.8 307.2a68.266667 68.266667 0 1 0 0-136.533333 68.266667 68.266667 0 0 0 0 136.533333z m204.8 0a68.266667 68.266667 0 1 0 0-136.533333 68.266667 68.266667 0 0 0 0 136.533333z m-34.133333 136.533333a68.266667 68.266667 0 1 1-136.533334 0 68.266667 68.266667 0 0 1 136.533334 0z m238.933333-136.533333a68.266667 68.266667 0 1 0 0-136.533333 68.266667 68.266667 0 0 0 0 136.533333z m-34.133333 136.533333a68.266667 68.266667 0 1 1-136.533334 0 68.266667 68.266667 0 0 1 136.533334 0z m238.933333-136.533333a68.266667 68.266667 0 1 0 0-136.533333 68.266667 68.266667 0 0 0 0 136.533333z m-34.133333 136.533333a68.266667 68.266667 0 1 1-136.533334 0 68.266667 68.266667 0 0 1 136.533334 0z m-443.733334 273.066667a68.266667 68.266667 0 1 0 0 136.533333h341.333334a68.266667 68.266667 0 1 0 0-136.533333H341.333333z" fill="#FFFFFF" p-id="20204"></path></svg>